<svg xmlns="http://www.w3.org/2000/svg" viewBox="0 0 1600 1000" role="img" aria-labelledby="title desc">
  <title id="title">Scattered life placeholder</title><desc id="desc">Symbolic life fragments drifting through a dark sky.</desc>
  <defs><radialGradient id="g" cx="50%" cy="42%" r="62%"><stop offset="0" stop-color="#7dd3fc" stop-opacity=".34"/><stop offset=".55" stop-color="#172554"/><stop offset="1" stop-color="#020617"/></radialGradient></defs>
  <rect width="1600" height="1000" fill="url(#g)"/>
  <g fill="none" stroke="#d9fbff" stroke-opacity=".22"><path d="M160 660C460 420 690 710 1020 430s480 90 540 10"/><path d="M90 330c360 120 480-180 800-40s420 60 610-90"/></g>
  <g fill="#e0f2fe" opacity=".9"><circle cx="260" cy="280" r="10"/><circle cx="520" cy="560" r="7"/><circle cx="760" cy="310" r="12"/><circle cx="1130" cy="620" r="8"/><circle cx="1360" cy="360" r="11"/></g>
  <g fill="#ffffff" opacity=".12"><rect x="260" y="650" width="160" height="90" rx="24"/><rect x="640" y="170" width="210" height="120" rx="28"/><rect x="1040" y="510" width="180" height="110" rx="26"/></g>
  <text x="110" y="840" fill="#eff6ff" font-family="Arial, sans-serif" font-size="64" font-weight="700">A life is scattered.</text>
</svg>
