{"asset":{"version":"2.0","generator":"URAI Genesis minimal AR proof asset"},"scene":0,"scenes":[{"nodes":[0]}],"nodes":[{"mesh":0,"name":"URAI Genesis Orb Marker","scale":[0.55,0.55,0.55]}],"meshes":[{"name":"URAI Genesis Minimal AR Cube","primitives":[{"attributes":{"POSITION":0,"NORMAL":1},"indices":2,"material":0}]}],"materials":[{"name":"URAI Cyan Launch Material","pbrMetallicRoughness":{"baseColorFactor":[0.25,0.9,1.0,1.0],"metallicFactor":0.0,"roughnessFactor":0.38},"emissiveFactor":[0.02,0.16,0.2]}],"buffers":[{"uri":"data:application/octet-stream;base64,","byteLength":720}],"bufferViews":[{"buffer":0,"byteOffset":0,"byteLength":288,"target":34962},{"buffer":0,"byteOffset":288,"byteLength":288,"target":34962},{"buffer":0,"byteOffset":576,"byteLength":72,"target":34963}],"accessors":[{"bufferView":0,"componentType":5126,"count":24,"type":"VEC3","min":[-0.5,-0.5,-0.5],"max":[0.5,0.5,0.5]},{"bufferView":1,"componentType":5126,"count":24,"type":"VEC3"},{"bufferView":2,"componentType":5123,"count":36,"type":"SCALAR"}]}